PathFileType	4	(x/y/z)	TRC_MarkerData\Passive\Passive_Pref0007.trc
DataRate	CameraRate	NumFrames	NumMarkers	Units	OrigDataRate	OrigDataStartFrame	OrigNumFrames
240	240	9	50	mm	240	97	256
Frame#	Time	R_AC			L_AC			HEAD			STERN			L_IC			R_IC			L_ASIS			R_ASIS			L_GT			R_GT			L_PSIS			R_PSIS			SACRAL			L_LAT_KNEE			L_MED_KNEE			R_LAT_KNEE			R_MED_KNEE			L_LAT_ANK			L_MED_ANK			R_LAT_ANK			R_MED_ANK			L_THIGH_PROX_POST			L_THIGH_PROX_ANT			L_THIGH_DIST_ANT			L_THIGH_DIST_POST			R_THIGH_PROX_POST			R_THIGH_PROX_ANT			R_THIGH_DIST_ANT			R_THIGH_DIST_POST			L_SHANK_PROX_POST			L_SHANK_PROX_ANT			L_SHANK_DIST_ANT			L_SHANK_DIST_POST			R_SHANK_PROX_POST			R_SHANK_PROX_ANT			R_SHANK_DIST_ANT			R_SHANK_DIST_POST			L_HEEL_LAT			L_HEEL_SUP			L_HEEL_MED			R_HEEL_LAT			R_HEEL_SUP			R_HEEL_MED			L_1ST_MET			L_5TH_MET			L_TOE			R_1ST_MET			R_5TH_MET			R_TOE			C7			
		X1	Y1	Z1	X2	Y2	Z2	X3	Y3	Z3	X4	Y4	Z4	X5	Y5	Z5	X6	Y6	Z6	X7	Y7	Z7	X8	Y8	Z8	X9	Y9	Z9	X10	Y10	Z10	X11	Y11	Z11	X12	Y12	Z12	X13	Y13	Z13	X14	Y14	Z14	X15	Y15	Z15	X16	Y16	Z16	X17	Y17	Z17	X18	Y18	Z18	X19	Y19	Z19	X20	Y20	Z20	X21	Y21	Z21	X22	Y22	Z22	X23	Y23	Z23	X24	Y24	Z24	X25	Y25	Z25	X26	Y26	Z26	X27	Y27	Z27	X28	Y28	Z28	X29	Y29	Z29	X30	Y30	Z30	X31	Y31	Z31	X32	Y32	Z32	X33	Y33	Z33	X34	Y34	Z34	X35	Y35	Z35	X36	Y36	Z36	X37	Y37	Z37	X38	Y38	Z38	X39	Y39	Z39	X40	Y40	Z40	X41	Y41	Z41	X42	Y42	Z42	X43	Y43	Z43	X44	Y44	Z44	X45	Y45	Z45	X46	Y46	Z46	X47	Y47	Z47	X48	Y48	Z48	X49	Y49	Z49	X50	Y50	Z50	

97	0.40157	-274.47	1517.8	407.24	-207.97	1531.6	60.473	-231.36	1808.3	231.25	-204.38	1469.1	238.57	-276.71	1095.1	75.896	-290.62	1124.9	397.43	-224.45	1012.3	106.88	-216.19	1034.8	378.49	-318.08	927.32	53.787	-284.09	967.92	439.47	-403.5	1085.4	185.11	-407.72	1096.3	276.48	-419.78	1059.4	232.83	-353.09	524.93	121.46	-387.31	534	253.95	-147.05	571.41	398.39	-139.29	580.85	267.51	-483.85	126.86	160.49	-483.89	129.77	231.17	-207.14	148.22	393.23	-181.3	164.16	305.73	-346.67	758.55	87.053	-284.2	750.85	103.49	-289	678.52	120.73	-353.26	684.87	103.67	-247.77	747.7	412.7	-184.62	776.46	424.71	-159.76	708.69	417.06	-219.06	679.47	402.41	-390.36	446.61	127.07	-346.69	447.8	154.07	-371.91	394.38	161.32	-429.38	397.96	150.22	-224.1	416.44	397.77	-157.27	412.7	411.15	-165.89	337.48	404.82	-233.68	343.68	388.74	-580.18	73.007	168.12	-584.25	102.1	199.24	-578.84	72.872	234.36	-269.03	75.047	360.79	-267.71	100.84	325.52	-246.93	73.924	297.53	-373.55	53.534	250.27	-405.35	38.921	144.42	-313.14	52.165	217.54	-47.516	93.136	341.14	-95.772	84.973	438.58	-7.1435	102.98	400.33	-313.62	1584.4	219.14
98	0.40575	-268.73	1517.1	407.23	-201.49	1531.1	60.626	-225.48	1807.8	231.6	-198.35	1468.6	238.57	-271.22	1094.5	76.066	-284.46	1124.6	397.54	-219.18	1011.6	106.97	-209.87	1034.5	378.53	-313.44	926.78	54.186	-277.85	967.73	439.74	-397.83	1085.3	185.58	-401.59	1096.1	276.91	-413.97	1059.2	233.37	-351.19	524.81	122.08	-385.35	533.85	254.61	-141.36	570.92	398.05	-134.59	580.14	267.14	-483.45	127.2	160.66	-483.47	130.02	231.35	-188.82	145.6	392.89	-163.97	162.48	305.27	-343.05	758.41	87.608	-280.69	750.18	103.99	-285.94	677.92	121.28	-350.16	684.72	104.27	-242.22	747.44	412.8	-178.07	775.74	424.29	-154.17	708.12	416.64	-213.63	679.07	402.39	-388.76	446.63	127.62	-345.07	447.62	154.61	-370.52	394.27	161.82	-427.96	398.11	150.71	-214.2	413.49	397.72	-147.26	411.76	410.82	-153.61	336.36	404.48	-221.6	340.49	388.62	-579.94	73.627	168.22	-583.89	102.69	199.4	-578.63	73.416	234.44	-248.35	70.361	360.57	-248.05	96.2	325.3	-226.58	70.071	297.22	-373.46	53.514	250.32	-405.28	38.971	144.44	-313.05	52.039	217.57	-27.776	96.032	339.98	-75.221	86.122	437.55	12.509	107.2	398.98	-307.45	1584	219.17
99	0.40993	-262.96	1516.5	407.22	-195.02	1530.7	60.774	-219.58	1807.2	231.96	-192.32	1468.1	238.56	-265.75	1093.8	76.231	-278.27	1124.2	397.66	-213.91	1010.8	107.06	-203.51	1034.1	378.57	-308.8	926.18	54.587	-271.57	967.44	440.01	-392.15	1085.1	186.07	-395.4	1095.8	277.35	-408.14	1058.9	233.93	-349.23	524.65	122.7	-383.32	533.67	255.27	-135.8	570.29	397.76	-130.11	579.26	266.78	-483.05	127.54	160.82	-483.05	130.26	231.54	-170.57	143.19	392.43	-146.75	161.02	304.7	-339.42	758.23	88.18	-277.16	749.48	104.48	-282.86	677.28	121.8	-347.04	684.52	104.87	-236.76	747.07	412.95	-171.58	774.87	423.89	-148.69	707.4	416.24	-208.31	678.54	402.41	-387.1	446.62	128.17	-343.41	447.41	155.16	-369.08	394.15	162.32	-426.49	398.25	151.2	-204.36	410.51	397.69	-137.34	410.81	410.49	-141.42	335.27	404.11	-209.57	337.35	388.49	-579.71	74.249	168.32	-583.52	103.28	199.56	-578.41	73.958	234.52	-227.7	65.979	360.21	-228.45	91.845	324.95	-206.29	66.551	296.76	-373.37	53.495	250.37	-405.22	39.018	144.45	-312.97	51.914	217.59	-8.3058	99.197	338.65	-54.852	87.515	436.37	31.876	111.64	397.47	-301.28	1583.6	219.2
100	0.41412	-257.16	1515.7	407.21	-188.55	1530.1	60.919	-213.68	1806.6	232.32	-186.27	1467.4	238.56	-260.29	1093.1	76.392	-272.04	1123.7	397.8	-208.63	1009.9	107.13	-197.11	1033.6	378.59	-304.18	925.54	54.992	-265.22	967.05	440.27	-386.47	1084.8	186.59	-389.17	1095.4	277.82	-402.28	1058.5	234.51	-347.19	524.46	123.32	-381.23	533.46	255.93	-130.35	569.54	397.51	-125.85	578.23	266.45	-482.65	127.87	160.99	-482.62	130.5	231.73	-152.42	140.99	391.86	-129.69	159.78	304.04	-335.78	758	88.768	-273.61	748.73	104.95	-279.74	676.61	122.31	-343.9	684.29	105.48	-231.36	746.59	413.13	-165.2	773.89	423.53	-143.29	706.53	415.88	-203.1	677.89	402.46	-385.4	446.59	128.72	-341.69	447.16	155.7	-367.6	393.99	162.82	-424.99	398.36	151.7	-194.56	407.53	397.69	-127.53	409.83	410.15	-129.35	334.24	403.71	-197.6	334.26	388.35	-579.48	74.872	168.43	-583.13	103.88	199.74	-578.19	74.499	234.6	-207.12	61.91	359.69	-208.95	87.791	324.47	-186.13	63.375	296.14	-373.29	53.477	250.41	-405.16	39.06	144.46	-312.89	51.791	217.62	10.856	102.62	337.17	-34.705	89.139	435.02	50.921	116.28	395.81	-295.1	1583.1	219.25
101	0.4183	-251.33	1514.9	407.2	-182.08	1529.5	61.061	-207.76	1805.9	232.68	-180.21	1466.7	238.55	-254.83	1092.3	76.549	-265.77	1123.2	397.95	-203.35	1009	107.2	-190.66	1033	378.6	-299.57	924.84	55.399	-258.83	966.54	440.53	-380.77	1084.5	187.13	-382.9	1094.9	278.3	-396.39	1058	235.11	-345.09	524.24	123.94	-379.07	533.22	256.6	-125.01	568.66	397.31	-121.78	577.04	266.14	-482.24	128.19	161.16	-482.19	130.73	231.93	-134.41	139.01	391.17	-112.81	158.77	303.27	-332.12	757.74	89.37	-270.05	747.95	105.4	-276.6	675.9	122.79	-340.73	684.02	106.09	-226.02	745.99	413.35	-158.94	772.79	423.22	-137.97	705.52	415.56	-197.98	677.12	402.54	-383.65	446.53	129.27	-339.92	446.88	156.24	-366.07	393.81	163.32	-423.43	398.46	152.19	-184.83	404.56	397.7	-117.82	408.84	409.82	-117.39	333.25	403.28	-185.71	331.23	388.19	-579.26	75.5	168.54	-582.74	104.5	199.93	-577.96	75.04	234.69	-186.67	58.161	359.01	-189.6	84.045	323.85	-166.14	60.548	295.37	-373.22	53.46	250.45	-405.1	39.099	144.47	-312.82	51.673	217.64	29.672	106.27	335.53	-14.822	90.975	433.52	69.611	121.1	393.99	-288.91	1582.5	219.31
102	0.42248	-245.46	1514	407.2	-175.63	1528.8	61.201	-201.82	1805.1	233.04	-174.14	1465.9	238.55	-249.39	1091.4	76.701	-259.45	1122.5	398.11	-198.06	1008	107.25	-184.17	1032.4	378.59	-294.96	924.1	55.806	-252.37	965.94	440.78	-375.06	1084.1	187.69	-376.59	1094.4	278.81	-390.48	1057.4	235.73	-342.91	523.99	124.55	-376.84	532.95	257.26	-119.76	567.66	397.14	-117.88	575.72	265.85	-481.83	128.52	161.34	-481.75	130.95	232.13	-116.59	137.24	390.35	-96.153	157.98	302.4	-328.44	757.43	89.986	-266.45	747.13	105.82	-273.42	675.16	123.25	-337.53	683.72	106.7	-220.72	745.29	413.61	-152.85	771.6	422.99	-132.71	704.38	415.28	-192.93	676.23	402.66	-381.84	446.44	129.82	-338.09	446.56	156.78	-364.5	393.59	163.81	-421.83	398.53	152.68	-175.16	401.61	397.73	-108.22	407.85	409.48	-105.57	332.31	402.82	-173.91	328.28	388.01	-579.04	76.135	168.66	-582.33	105.12	200.14	-577.73	75.583	234.79	-166.39	54.733	358.16	-170.44	80.614	323.09	-146.38	58.074	294.43	-373.15	53.445	250.48	-405.05	39.134	144.48	-312.75	51.557	217.66	48.102	110.14	333.75	4.7558	92.997	431.85	87.909	126.07	392.03	-282.73	1581.8	219.37
103	0.42667	-239.56	1513	407.2	-169.18	1528	61.341	-195.87	1804.2	233.41	-168.05	1465	238.55	-243.95	1090.5	76.849	-253.08	1121.8	398.28	-192.76	1007	107.29	-177.65	1031.6	378.57	-290.35	923.32	56.215	-245.85	965.23	441.03	-369.34	1083.6	188.26	-370.26	1093.7	279.34	-384.54	1056.8	236.37	-340.66	523.7	125.16	-374.53	532.64	257.92	-114.59	566.56	397.02	-114.13	574.26	265.59	-481.41	128.84	161.51	-481.3	131.18	232.33	-98.994	135.68	389.41	-79.752	157.39	301.44	-324.74	757.08	90.614	-262.83	746.28	106.22	-270.21	674.37	123.69	-334.29	683.37	107.31	-215.44	744.48	413.9	-146.94	770.34	422.83	-127.51	703.1	415.05	-187.93	675.24	402.8	-379.98	446.32	130.36	-336.21	446.21	157.31	-362.87	393.35	164.29	-420.18	398.59	153.17	-165.56	398.69	397.76	-98.735	406.85	409.13	-93.894	331.42	402.33	-162.22	325.42	387.8	-578.84	76.779	168.78	-581.91	105.75	200.36	-577.5	76.132	234.89	-146.35	51.625	357.14	-151.53	77.498	322.2	-126.9	55.948	293.33	-373.09	53.43	250.51	-405.01	39.164	144.49	-312.69	51.446	217.67	66.109	114.18	331.83	23.983	95.176	430.05	105.78	131.13	389.95	-276.53	1581.1	219.45
104	0.43085	-233.64	1511.9	407.21	-162.74	1527.2	61.482	-189.91	1803.3	233.78	-161.96	1464	238.55	-238.52	1089.5	76.994	-246.66	1121	398.45	-187.45	1005.9	107.3	-171.09	1030.8	378.52	-285.75	922.49	56.624	-239.25	964.43	441.26	-363.6	1083	188.86	-363.91	1093	279.88	-378.57	1056.1	237.02	-338.33	523.37	125.76	-372.14	532.31	258.58	-109.46	565.36	396.93	-110.5	572.69	265.34	-480.97	129.15	161.68	-480.83	131.4	232.53	-81.676	134.32	388.36	-63.645	157.01	300.39	-321.01	756.68	91.25	-259.17	745.39	106.59	-266.96	673.55	124.1	-331.02	682.99	107.92	-210.17	743.56	414.21	-141.22	769.01	422.76	-122.33	701.71	414.86	-182.97	674.15	402.97	-378.05	446.18	130.9	-334.28	445.82	157.84	-361.19	393.09	164.77	-418.48	398.63	153.66	-156.03	395.83	397.79	-89.369	405.86	408.78	-82.388	330.58	401.82	-150.66	322.66	387.55	-578.64	77.435	168.9	-581.48	106.4	200.6	-577.25	76.688	235	-126.62	48.832	355.95	-132.92	74.696	321.16	-107.76	54.162	292.06	-373.03	53.418	250.53	-404.96	39.191	144.5	-312.62	51.34	217.68	83.655	118.37	329.78	42.816	97.478	428.1	123.19	136.25	387.74	-270.34	1580.3	219.53
105	0.43503	-227.68	1510.8	407.23	-156.31	1526.3	61.626	-183.93	1802.3	234.15	-155.85	1463	238.55	-233.09	1088.4	77.134	-240.17	1120.1	398.64	-182.12	1004.7	107.3	-164.49	1029.9	378.45	-281.14	921.61	57.034	-232.59	963.54	441.49	-357.85	1082.3	189.47	-357.55	1092.2	280.45	-372.57	1055.3	237.69	-335.92	523.01	126.35	-369.67	531.95	259.23	-104.36	564.09	396.87	-106.95	571.02	265.11	-480.53	129.47	161.86	-480.36	131.61	232.73	-64.678	133.14	387.19	-47.871	156.81	299.26	-317.24	756.23	91.895	-255.48	744.47	106.93	-263.65	672.7	124.48	-327.7	682.58	108.53	-204.89	742.55	414.55	-135.67	767.64	422.78	-117.17	700.22	414.71	-178.02	672.96	403.17	-376.07	446.01	131.43	-332.28	445.4	158.36	-359.46	392.79	165.24	-416.72	398.64	154.15	-146.6	393.02	397.8	-80.128	404.87	408.43	-71.067	329.8	401.27	-139.24	320	387.25	-578.46	78.105	169.02	-581.03	107.06	200.85	-577.01	77.255	235.12	-107.24	46.343	354.6	-114.67	72.2	319.99	-89.023	52.704	290.63	-372.98	53.408	250.54	-404.92	39.214	144.5	-312.56	51.238	217.69	100.7	122.66	327.61	61.209	99.868	426.01	140.11	141.38	385.43	-264.14	1579.5	219.62
